<svg xmlns="http://www.w3.org/2000/svg" viewBox="0 0 102.5 80"><defs><style>.cls-1{fill:#c2a37e;}.cls-2{fill:#e5ddca;}.cls-3{fill:#524656;}</style></defs><title>barrel</title><g id="Layer_2" data-name="Layer 2"><g id="Layer_2-2" data-name="Layer 2"><path class="cls-1" d="M22.1,41.26H8.52c0,1.6.07,3.22.16,4.92,4.19,1.09,8.64,2,13.53,2.83C22.13,46.39,22.1,43.85,22.1,41.26Z"/><path class="cls-1" d="M10,61.12c.26,2.47.55,5.18.88,8.21a102,102,0,0,0,12.88,4.44c-.23-3-.44-5.84-.62-8.42A106.24,106.24,0,0,1,10,61.12Z"/><path class="cls-1" d="M22.31,51.58c-4.86-.79-9.28-1.71-13.46-2.77.19,2.78.47,5.86.84,9.49a104.48,104.48,0,0,0,13.24,4.38C22.65,58.58,22.44,55,22.31,51.58Z"/><path class="cls-2" d="M33.67,4c-2.22.36-4.61.85-7.37,1.52C24,39.94,24,45,26.28,74.44c2.76.67,5.16,1.17,7.38,1.53C30.25,40.83,30.25,39.88,33.67,4Z"/><path class="cls-1" d="M10,18.87a106.27,106.27,0,0,1,13.22-4.24c.16-2.6.34-5.39.54-8.4a102,102,0,0,0-12.9,4.44C10.53,13.69,10.24,16.4,10,18.87Z"/><path class="cls-1" d="M23,17.27A104.5,104.5,0,0,0,9.7,21.68c-.36,3.63-.64,6.72-.84,9.49,4.21-1.07,8.68-2,13.58-2.79C22.59,25.07,22.8,21.41,23,17.27Z"/><path class="cls-2" d="M2.72,14.75c-.31,5.81-.3,45.15,0,50.54.78.48,3.38,1.84,5.48,2.85-2.93-27.26-2.93-28.65,0-56.31C6.17,12.83,3.65,14.16,2.72,14.75Z"/><path class="cls-1" d="M68.88,38.74c0-3-.15-6-.36-9.34-5.75-.58-11.55-.88-17.27-.88s-11.52.3-17.27.88c-.21,3.37-.33,6.39-.36,9.34Z"/><path class="cls-1" d="M22.34,31c-4.93.81-9.42,1.75-13.64,2.85-.09,1.71-.15,3.33-.17,4.93h13.6C22.16,36.28,22.23,33.72,22.34,31Z"/><path class="cls-1" d="M34.12,53.14c.25,3.52.59,7.45,1,12.08a106,106,0,0,0,16.11,1.19,106,106,0,0,0,16.11-1.19c.43-4.64.77-8.57,1-12.08-5.7.56-11.46.85-17.13.85S39.82,53.7,34.12,53.14Z"/><path class="cls-1" d="M78.78,73.77a102,102,0,0,0,12.88-4.44c.33-3,.62-5.74.88-8.21A106.24,106.24,0,0,1,79.4,65.34C79.21,67.93,79,70.72,78.78,73.77Z"/><path class="cls-1" d="M92.51,18.87c-.25-2.47-.54-5.18-.86-8.2a102,102,0,0,0-12.9-4.44c.2,3,.38,5.81.54,8.4A106.27,106.27,0,0,1,92.51,18.87Z"/><path class="cls-1" d="M35.39,67.79q.37,3.91.82,8.53a102.14,102.14,0,0,0,15,1.16,102.14,102.14,0,0,0,15-1.16q.45-4.63.82-8.53a109.64,109.64,0,0,1-15.86,1.14A109.64,109.64,0,0,1,35.39,67.79Z"/><path class="cls-1" d="M80.29,49c4.89-.81,9.34-1.74,13.53-2.83.09-1.7.14-3.32.16-4.92H80.4C80.4,43.85,80.37,46.39,80.29,49Z"/><path class="cls-1" d="M79.58,62.69a104.48,104.48,0,0,0,13.24-4.38c.37-3.63.65-6.71.84-9.49-4.18,1.06-8.6,2-13.46,2.77C80.06,55,79.85,58.58,79.58,62.69Z"/><path class="cls-1" d="M68.35,26.86c-.25-3.52-.59-7.45-1-12.08a109.13,109.13,0,0,0-32.17,0c-.42,4.63-.76,8.57-1,12.08,5.69-.56,11.44-.85,17.1-.85S62.66,26.3,68.35,26.86Z"/><path class="cls-1" d="M33.62,41.26c0,3,.13,6,.34,9.34a173,173,0,0,0,17.3.88,172.94,172.94,0,0,0,17.3-.88c.2-3.34.32-6.35.34-9.34Z"/><path class="cls-2" d="M68.84,4c3.41,35.86,3.41,36.85,0,71.94,2.22-.36,4.61-.85,7.38-1.53,2.24-29.45,2.24-34.51,0-68.89C73.45,4.88,71.06,4.39,68.84,4Z"/><path class="cls-1" d="M67.1,12.2c-.24-2.61-.51-5.45-.81-8.53a102.16,102.16,0,0,0-15-1.16,102.15,102.15,0,0,0-15,1.16q-.44,4.62-.81,8.53a111.37,111.37,0,0,1,31.69,0Z"/><path class="cls-2" d="M94.29,11.84c2.93,27.66,2.93,29.06,0,56.31,2-1,4.55-2.31,5.48-2.91.31-6.31.3-45,0-50.54C99,14.22,96.4,12.86,94.29,11.84Z"/><path class="cls-1" d="M80.38,38.74H94c0-1.59-.08-3.22-.17-4.93-4.22-1.1-8.71-2-13.64-2.85C80.27,33.72,80.34,36.28,80.38,38.74Z"/><path class="cls-1" d="M80.06,28.39c4.91.8,9.37,1.72,13.58,2.79-.2-2.78-.48-5.87-.84-9.49a104.5,104.5,0,0,0-13.34-4.41C79.71,21.41,79.91,25.07,80.06,28.39Z"/><path class="cls-3" d="M102,13.39c-.72-1-7.78-4.37-8.7-4.75h0a104.1,104.1,0,0,0-15.6-5.3h0a102.66,102.66,0,0,0-10.18-2A105.58,105.58,0,0,0,51.25,0,156.22,156.22,0,0,0,34.89,1.3c-3,.42-8.53,1.65-10.1,2a98,98,0,0,0-15.6,5.3h0c-.91.38-8,3.71-8.7,4.75A1.25,1.25,0,0,0,.27,14c-.36,3.4-.36,48.6,0,51.92a1.26,1.26,0,0,0,.22.72c.72,1,7.65,4.35,8.58,4.7,1.62.62,10.38,4,15.72,5.35h0a92,92,0,0,0,10.08,2A136.44,136.44,0,0,0,51.25,80,124.2,124.2,0,0,0,67.5,78.7a75,75,0,0,0,10.2-2c4-1.2,10.81-3,15.62-5.31.55-.26,8-3.71,8.7-4.76a1,1,0,0,0,.22-.63c.36-3.4.36-48.6,0-52A1.26,1.26,0,0,0,102,13.39ZM94,38.74H80.38c0-2.46-.1-5-.21-7.78,4.93.81,9.42,1.75,13.64,2.85C93.9,35.52,94,37.15,94,38.74Zm-.34-7.56c-4.21-1.07-8.68-2-13.58-2.79-.15-3.32-.35-7-.6-11.12A104.5,104.5,0,0,1,92.8,21.68C93.16,25.31,93.44,28.4,93.64,31.18ZM36.21,3.67a102.15,102.15,0,0,1,15-1.16,102.16,102.16,0,0,1,15,1.16c.29,3.08.56,5.92.81,8.53a111.37,111.37,0,0,0-31.69,0Q35.77,8.29,36.21,3.67Zm-1,11.1a109.13,109.13,0,0,1,32.17,0c.43,4.63.76,8.57,1,12.08C62.66,26.3,56.91,26,51.25,26s-11.41.29-17.1.85C34.4,23.34,34.74,19.41,35.17,14.78ZM51.25,28.53c5.71,0,11.52.3,17.27.88.21,3.37.33,6.38.36,9.34H33.62c0-3,.15-6,.36-9.34C39.73,28.82,45.54,28.53,51.25,28.53ZM9.7,21.68A104.5,104.5,0,0,1,23,17.27c-.25,4.14-.45,7.8-.6,11.12-4.91.8-9.37,1.72-13.58,2.79C9.06,28.4,9.34,25.31,9.7,21.68Zm-1,12.13c4.22-1.1,8.71-2,13.64-2.85-.11,2.76-.18,5.32-.21,7.78H8.52C8.55,37.15,8.6,35.52,8.7,33.81ZM8.2,68.15c-2.1-1-4.7-2.37-5.48-2.85-.31-5.39-.31-44.73,0-50.54.93-.6,3.45-1.93,5.49-2.91C5.28,39.51,5.27,40.89,8.2,68.15Zm.32-26.9H22.1c0,2.6,0,5.13.11,7.76-4.89-.81-9.34-1.74-13.53-2.83C8.59,44.48,8.54,42.86,8.52,41.26Zm.32,7.56c4.18,1.06,8.6,2,13.46,2.77.14,3.39.34,7,.62,11.11A104.48,104.48,0,0,1,9.68,58.31C9.32,54.68,9,51.6,8.84,48.82Zm2,20.51c-.33-3-.62-5.74-.88-8.21A106.24,106.24,0,0,0,23.1,65.34c.18,2.58.39,5.38.62,8.42A102,102,0,0,1,10.85,69.33Zm12.36-54.7A106.27,106.27,0,0,0,10,18.87c.25-2.47.54-5.18.86-8.2a102,102,0,0,1,12.9-4.44C23.55,9.24,23.37,12,23.21,14.63Zm3.07,59.81C24,45,24,39.94,26.29,5.55c2.76-.67,5.15-1.16,7.37-1.52-3.41,35.85-3.41,36.8,0,71.94C31.44,75.61,29,75.12,26.28,74.44Zm40,1.88a102.14,102.14,0,0,1-15,1.16,102.14,102.14,0,0,1-15-1.16q-.45-4.63-.82-8.53a109.64,109.64,0,0,0,15.86,1.14,109.64,109.64,0,0,0,15.86-1.14Q66.74,71.7,66.29,76.33Zm1.07-11.11a106,106,0,0,1-16.11,1.19,106,106,0,0,1-16.11-1.19c-.43-4.63-.77-8.56-1-12.08,5.7.56,11.46.85,17.13.85s11.43-.29,17.13-.85C68.13,56.65,67.79,60.58,67.36,65.22ZM51.25,51.47A173,173,0,0,1,34,50.59c-.2-3.34-.32-6.35-.34-9.34H68.88c0,3-.13,6-.34,9.34A172.94,172.94,0,0,1,51.25,51.47Zm25,23c-2.76.67-5.16,1.17-7.38,1.53,3.4-35.1,3.41-36.08,0-71.94,2.22.36,4.61.85,7.37,1.52C78.46,39.94,78.46,45,76.22,74.44ZM91.65,10.67c.32,3,.61,5.73.86,8.21a106.27,106.27,0,0,0-13.22-4.24c-.16-2.6-.34-5.39-.54-8.4A102,102,0,0,1,91.65,10.67Zm0,58.66a102,102,0,0,1-12.88,4.44c.23-3,.44-5.84.62-8.42a106.24,106.24,0,0,0,13.13-4.22C92.27,63.59,92,66.31,91.65,69.33Zm1.16-11a104.48,104.48,0,0,1-13.24,4.38c.28-4.11.48-7.71.62-11.11,4.86-.79,9.28-1.71,13.46-2.77C93.46,51.6,93.18,54.68,92.82,58.31Zm1-12.13c-4.19,1.09-8.64,2-13.53,2.83.08-2.62.12-5.16.11-7.76H94C94,42.86,93.91,44.48,93.82,46.18Zm6,19.06c-.93.6-3.45,1.93-5.48,2.91,2.93-27.25,2.93-28.65,0-56.31,2.1,1,4.71,2.38,5.48,2.86C100.08,20.25,100.09,58.93,99.78,65.25Z"/></g></g></svg>