<svg xmlns="http://www.w3.org/2000/svg" viewBox="0 0 102.5 102.5"><defs><style>.cls-1{fill:#e5ddca;}.cls-2{fill:#8ca867;}.cls-3{fill:#524656;}</style></defs><title>beerCap</title><g id="Layer_2" data-name="Layer 2"><g id="Layer_2-2" data-name="Layer 2"><path class="cls-1" d="M51.25,12.45A38.77,38.77,0,1,0,90,51.22,38.8,38.8,0,0,0,51.25,12.45ZM35,46.22a6.24,6.24,0,0,1-2.52,5,6.24,6.24,0,0,1,2.52,5v5a1.25,1.25,0,0,1-1.25,1.25h-10a1.25,1.25,0,0,1-1.25-1.25v-20A1.25,1.25,0,0,1,23.75,40h10A1.25,1.25,0,0,1,35,41.21ZM48.75,50a1.25,1.25,0,0,1,0,2.5H40V60h8.75a1.25,1.25,0,0,1,0,2.5h-10a1.25,1.25,0,0,1-1.25-1.25v-20A1.25,1.25,0,0,1,38.75,40h10a1.25,1.25,0,0,1,0,2.5H40V50Zm15,0a1.25,1.25,0,0,1,0,2.5H55V60h8.75a1.25,1.25,0,0,1,0,2.5h-10a1.25,1.25,0,0,1-1.25-1.25v-20A1.25,1.25,0,0,1,53.75,40h10a1.25,1.25,0,0,1,0,2.5H55V50ZM79.63,60.34a1.25,1.25,0,1,1-1.77,1.77L70,54.24v7a1.25,1.25,0,1,1-2.5,0v-20A1.25,1.25,0,0,1,68.75,40h5a6.25,6.25,0,0,1,0,12.51h-2Z"/><path class="cls-2" d="M97.32,39a3.53,3.53,0,0,0-1.62-5,8.22,8.22,0,0,1-4.41-8.65,3.54,3.54,0,0,0-3.08-4.25,8.21,8.21,0,0,1-6.86-6.86,3.57,3.57,0,0,0-1.44-2.49,3.62,3.62,0,0,0-2.81-.61,8.27,8.27,0,0,1-8.65-4.41,3.54,3.54,0,0,0-5-1.62,8.19,8.19,0,0,1-9.59-1.51,3.62,3.62,0,0,0-5.25,0A8.21,8.21,0,0,1,39,5.12a3.54,3.54,0,0,0-5,1.63,8.35,8.35,0,0,1-8.65,4.4,3.65,3.65,0,0,0-2.81.61,3.57,3.57,0,0,0-1.44,2.49,8.21,8.21,0,0,1-6.86,6.86,3.54,3.54,0,0,0-3.08,4.25A8.22,8.22,0,0,1,6.81,34a3.53,3.53,0,0,0-1.62,5,8.22,8.22,0,0,1-1.52,9.6,3.54,3.54,0,0,0,0,5.25,8.22,8.22,0,0,1,1.52,9.6,3.53,3.53,0,0,0,1.62,5,8.22,8.22,0,0,1,4.41,8.65,3.54,3.54,0,0,0,3.08,4.25,8.21,8.21,0,0,1,6.86,6.86,3.55,3.55,0,0,0,4.25,3.09,8.29,8.29,0,0,1,8.65,4.41,3.54,3.54,0,0,0,5,1.62,7.68,7.68,0,0,1,3.71-.92,8.1,8.1,0,0,1,5.88,2.43,3.62,3.62,0,0,0,5.25,0,8.19,8.19,0,0,1,9.58-1.51,3.54,3.54,0,0,0,5-1.63,8.31,8.31,0,0,1,8.65-4.4,3.55,3.55,0,0,0,4.25-3.09,8.21,8.21,0,0,1,6.86-6.86,3.54,3.54,0,0,0,3.08-4.25,8.22,8.22,0,0,1,4.4-8.65,3.53,3.53,0,0,0,1.62-5,8.22,8.22,0,0,1,1.52-9.6,3.54,3.54,0,0,0,0-5.25A8.22,8.22,0,0,1,97.32,39ZM51.25,92.49A41.27,41.27,0,1,1,92.5,51.22,41.31,41.31,0,0,1,51.25,92.49Z"/><path class="cls-1" d="M77.5,46.27a3.73,3.73,0,0,0-3.7-3.8H70V50h3.8A3.71,3.71,0,0,0,77.5,46.27Z"/><path class="cls-1" d="M25,50h3.75a3.76,3.76,0,0,0,3.75-3.75V42.46H25Z"/><path class="cls-1" d="M28.75,52.47H25V60h7.5V56.22A3.76,3.76,0,0,0,28.75,52.47Z"/><path class="cls-3" d="M99.5,40.21a6,6,0,0,0-2.75-8.47,5.77,5.77,0,0,1-3-5.92,6,6,0,0,0-5.23-7.2,5.77,5.77,0,0,1-4.69-4.7,6,6,0,0,0-7.2-5.23,5.75,5.75,0,0,1-5.91-3,6,6,0,0,0-8.46-2.75,5.76,5.76,0,0,1-6.55-1,6.17,6.17,0,0,0-8.9,0,5.74,5.74,0,0,1-6.55,1,6,6,0,0,0-8.46,2.76,5.72,5.72,0,0,1-5.91,3,6,6,0,0,0-7.2,5.23A5.77,5.77,0,0,1,14,18.63a6,6,0,0,0-5.23,7.2,5.77,5.77,0,0,1-3,5.92A6,6,0,0,0,3,40.21a5.77,5.77,0,0,1-1,6.56,6,6,0,0,0,0,8.9,5.77,5.77,0,0,1,1,6.56,6,6,0,0,0,2.75,8.47,5.77,5.77,0,0,1,3,5.92A6,6,0,0,0,14,83.81a5.77,5.77,0,0,1,4.69,4.7,6,6,0,0,0,7.2,5.23,5.74,5.74,0,0,1,5.91,3,6,6,0,0,0,8.46,2.75,5.75,5.75,0,0,1,6.55,1,6,6,0,0,0,8.9,0,5.75,5.75,0,0,1,6.55-1,6,6,0,0,0,8.46-2.76,5.76,5.76,0,0,1,5.91-3,6,6,0,0,0,7.2-5.23,5.77,5.77,0,0,1,4.69-4.7,6,6,0,0,0,5.23-7.2,5.77,5.77,0,0,1,3-5.92,6,6,0,0,0,2.75-8.47,5.77,5.77,0,0,1,1-6.56,6,6,0,0,0,0-8.9A5.77,5.77,0,0,1,99.5,40.21Zm-.67,13.63a8.22,8.22,0,0,0-1.52,9.6,3.53,3.53,0,0,1-1.62,5,8.22,8.22,0,0,0-4.4,8.65,3.54,3.54,0,0,1-3.08,4.25,8.21,8.21,0,0,0-6.86,6.86,3.55,3.55,0,0,1-4.25,3.09,8.31,8.31,0,0,0-8.65,4.4,3.54,3.54,0,0,1-5,1.63,8.19,8.19,0,0,0-9.58,1.51,3.62,3.62,0,0,1-5.25,0,8.1,8.1,0,0,0-5.88-2.43,7.68,7.68,0,0,0-3.71.92,3.54,3.54,0,0,1-5-1.62,8.29,8.29,0,0,0-8.65-4.41,3.55,3.55,0,0,1-4.25-3.09,8.21,8.21,0,0,0-6.86-6.86,3.54,3.54,0,0,1-3.08-4.25A8.22,8.22,0,0,0,6.8,68.43a3.53,3.53,0,0,1-1.62-5,8.22,8.22,0,0,0-1.52-9.6,3.54,3.54,0,0,1,0-5.25A8.22,8.22,0,0,0,5.18,39a3.53,3.53,0,0,1,1.62-5,8.22,8.22,0,0,0,4.4-8.65,3.54,3.54,0,0,1,3.08-4.25,8.21,8.21,0,0,0,6.86-6.86,3.57,3.57,0,0,1,1.44-2.49,3.65,3.65,0,0,1,2.81-.61,8.35,8.35,0,0,0,8.65-4.4,3.54,3.54,0,0,1,5-1.63,8.21,8.21,0,0,0,9.58-1.51,3.62,3.62,0,0,1,5.25,0,8.19,8.19,0,0,0,9.59,1.51,3.54,3.54,0,0,1,5,1.62,8.27,8.27,0,0,0,8.65,4.41,3.62,3.62,0,0,1,2.81.61,3.57,3.57,0,0,1,1.44,2.49,8.21,8.21,0,0,0,6.86,6.86,3.54,3.54,0,0,1,3.08,4.25A8.22,8.22,0,0,0,95.7,34a3.53,3.53,0,0,1,1.62,5,8.22,8.22,0,0,0,1.52,9.6,3.54,3.54,0,0,1,0,5.25Z"/><path class="cls-3" d="M51.25,9.94A41.27,41.27,0,1,0,92.5,51.22,41.31,41.31,0,0,0,51.25,9.94Zm0,80A38.77,38.77,0,1,1,90,51.22,38.8,38.8,0,0,1,51.25,90Z"/><path class="cls-3" d="M33.75,40h-10a1.25,1.25,0,0,0-1.25,1.25v20a1.25,1.25,0,0,0,1.25,1.25h10A1.25,1.25,0,0,0,35,61.23v-5a6.24,6.24,0,0,0-2.52-5,6.24,6.24,0,0,0,2.52-5v-5A1.25,1.25,0,0,0,33.75,40ZM32.5,56.22V60H25v-7.5h3.75A3.76,3.76,0,0,1,32.5,56.22Zm0-10A3.76,3.76,0,0,1,28.75,50H25v-7.5h7.5Z"/><path class="cls-3" d="M48.75,42.46a1.25,1.25,0,0,0,0-2.5h-10a1.25,1.25,0,0,0-1.25,1.25v20a1.25,1.25,0,0,0,1.25,1.25h10a1.25,1.25,0,0,0,0-2.5H40v-7.5h8.75a1.25,1.25,0,0,0,0-2.5H40v-7.5Z"/><path class="cls-3" d="M63.75,42.46a1.25,1.25,0,0,0,0-2.5h-10a1.25,1.25,0,0,0-1.25,1.25v20a1.25,1.25,0,0,0,1.25,1.25h10a1.25,1.25,0,0,0,0-2.5H55v-7.5h8.75a1.25,1.25,0,0,0,0-2.5H55v-7.5Z"/><path class="cls-3" d="M80,46.17A6.21,6.21,0,0,0,73.8,40h-5a1.25,1.25,0,0,0-1.25,1.25v20a1.25,1.25,0,1,0,2.5,0v-7l7.87,7.87a1.25,1.25,0,0,0,1.77-1.77l-7.87-7.87h2A6.23,6.23,0,0,0,80,46.17ZM70,50v-7.5h3.8a3.75,3.75,0,0,1,0,7.5Z"/></g></g></svg>