<svg xmlns="http://www.w3.org/2000/svg" viewBox="0 0 62 102.5"><defs><style>.cls-1{fill:#deb65f;}.cls-2{fill:#e5ddca;}.cls-3{fill:#524656;}</style></defs><title>goblet</title><g id="Layer_2" data-name="Layer 2"><g id="Layer_2-2" data-name="Layer 2"><path class="cls-1" d="M12,65.4l.3.41A22.33,22.33,0,0,0,23.47,74,23.6,23.6,0,0,0,49.7,65.8l.3-.4a23.59,23.59,0,0,0,4.17-9.08,23.43,23.43,0,0,0,0-8.19L50.48,23.56a1.23,1.23,0,0,0-1.23-1.06H12.75a1.23,1.23,0,0,0-1.23,1.06L7.85,48.13a23.49,23.49,0,0,0,0,8.2A23.61,23.61,0,0,0,12,65.4Z"/><path class="cls-2" d="M8,68.42l.3.4a28,28,0,0,0,13.35,9.77,8.18,8.18,0,0,1,5.61,7.66A8.07,8.07,0,0,1,21.77,94l-8.64,2.89A1.2,1.2,0,0,0,12.3,98v.89A1.09,1.09,0,0,0,13.39,100H48.61a1.09,1.09,0,0,0,1.09-1.09V98a1.2,1.2,0,0,0-.82-1.14L40.23,94a8,8,0,0,1-5.49-7.64,8.21,8.21,0,0,1,5.61-7.76A28,28,0,0,0,53.7,68.82l.31-.41a28.35,28.35,0,0,0,5-11,27.39,27.39,0,0,0,.05-10L52.84,5.68A3.7,3.7,0,0,0,49.17,2.5H12.83A3.7,3.7,0,0,0,9.16,5.68L2.92,47.42a27.39,27.39,0,0,0,.05,10A28.34,28.34,0,0,0,8,68.42ZM5.38,47.77,9.05,23.19A3.76,3.76,0,0,1,12.75,20H49.25a3.76,3.76,0,0,1,3.69,3.19l3.67,24.57a25.92,25.92,0,0,1,0,9.1A26.11,26.11,0,0,1,52,66.9l-.29.39A25.68,25.68,0,0,1,30.93,77.68a27.94,27.94,0,0,1-8.19-1.25A24.83,24.83,0,0,1,10.3,67.3l-.3-.4a26.13,26.13,0,0,1-4.61-10A26,26,0,0,1,5.38,47.77Z"/><path class="cls-3" d="M6,69.92l.3.4A30.52,30.52,0,0,0,20.84,80.95a5.64,5.64,0,0,1,3.93,5.4A5.55,5.55,0,0,1,21,91.61L12.33,94.5A3.7,3.7,0,0,0,9.8,98v.89a3.59,3.59,0,0,0,3.58,3.59H48.61a3.59,3.59,0,0,0,3.58-3.59V98a3.7,3.7,0,0,0-2.53-3.51L41,91.61a5.61,5.61,0,0,1,.14-10.66A30.5,30.5,0,0,0,55.69,70.32l.31-.41a30.78,30.78,0,0,0,5.46-12A29.69,29.69,0,0,0,61.54,47L55.31,5.31A6.18,6.18,0,0,0,49.17,0H12.83A6.18,6.18,0,0,0,6.69,5.31L.46,47a29.69,29.69,0,0,0,.08,10.9A30.77,30.77,0,0,0,6,69.92ZM2.92,47.42,9.16,5.68A3.7,3.7,0,0,1,12.83,2.5H49.17a3.7,3.7,0,0,1,3.68,3.18l6.23,41.74a27.39,27.39,0,0,1-.05,10,28.35,28.35,0,0,1-5,11l-.31.41a28,28,0,0,1-13.35,9.77,8.21,8.21,0,0,0-5.61,7.76A8,8,0,0,0,40.23,94l8.64,2.89A1.2,1.2,0,0,1,49.7,98v.89A1.09,1.09,0,0,1,48.61,100H13.39a1.09,1.09,0,0,1-1.09-1.09V98a1.2,1.2,0,0,1,.82-1.14L21.77,94a8.07,8.07,0,0,0,5.49-7.74,8.18,8.18,0,0,0-5.61-7.66A28,28,0,0,1,8.29,68.82l-.3-.4a28.34,28.34,0,0,1-5-11A27.39,27.39,0,0,1,2.92,47.42Z"/><path class="cls-3" d="M10,66.9l.3.4a24.83,24.83,0,0,0,12.43,9.14,27.94,27.94,0,0,0,8.19,1.25A25.68,25.68,0,0,0,51.7,67.3L52,66.9a26.11,26.11,0,0,0,4.61-10,25.92,25.92,0,0,0,0-9.1L52.95,23.19A3.76,3.76,0,0,0,49.25,20H12.75a3.76,3.76,0,0,0-3.69,3.19L5.38,47.77a26,26,0,0,0,0,9.11A26.13,26.13,0,0,0,10,66.9ZM7.85,48.13l3.67-24.58a1.23,1.23,0,0,1,1.23-1.06H49.25a1.23,1.23,0,0,1,1.23,1.06l3.67,24.57a23.43,23.43,0,0,1,0,8.19A23.59,23.59,0,0,1,50,65.4l-.3.4A23.6,23.6,0,0,1,23.47,74,22.33,22.33,0,0,1,12.3,65.8L12,65.4a23.61,23.61,0,0,1-4.16-9.06A23.49,23.49,0,0,1,7.85,48.13Z"/></g></g></svg>