<svg xmlns="http://www.w3.org/2000/svg" viewBox="0 0 92.5 102.5"><defs><style>.cls-1{fill:#a0bf6d;}.cls-2{fill:#8ca867;}.cls-3{fill:#524656;}</style></defs><title>hop</title><g id="Layer_2" data-name="Layer 2"><g id="Layer_2-2" data-name="Layer 2"><path class="cls-1" d="M27.18,52.76c-.13-.17-7.72-11.33-9.68-14.94V51.25a1.25,1.25,0,0,1-2.5,0V37.54c-8.57.39-12.5,4.69-12.5,8.71,0,3.15,8,15.17,13.75,22.9C19.32,65.08,25,56.24,27.18,52.76Z"/><path class="cls-1" d="M45,31.25c0-4-3.93-8.33-12.5-8.71V36.25a1.25,1.25,0,0,1-2.5,0V22.54c-8.57.39-12.5,4.69-12.5,8.71,0,3.42,12.58,21.46,13.75,22.9C32.3,52.82,45,35,45,31.25Z"/><path class="cls-2" d="M45,37.85a138.5,138.5,0,0,1-8.07,12.67c.1.17,9.32,13.62,9.32,13.62s9.21-13.43,9.32-13.62A138.33,138.33,0,0,1,47.5,37.85v13.4a1.25,1.25,0,0,1-2.5,0Z"/><path class="cls-1" d="M75,31.25c0-4-3.93-8.33-12.5-8.71V36.25a1.25,1.25,0,0,1-2.5,0V22.54c-8.57.39-12.5,4.69-12.5,8.71,0,3.48,12.25,20.82,13.75,22.9C62.61,52.13,75,35.15,75,31.25Z"/><path class="cls-2" d="M35.38,52.71C34,54.58,33,56,32.5,56.66v9.59a1.25,1.25,0,0,1-2.5,0V56.66L28.78,55c-2.5,4.23-5.83,9.09-8.46,12.8,3.37,5.85,8.74,13.36,10.93,16.36A188.37,188.37,0,0,0,43.74,64.93C41.75,62.19,38.31,57.43,35.38,52.71Z"/><path class="cls-2" d="M62.5,56.65v9.6a1.25,1.25,0,0,1-2.5,0V56.66c-.46-.63-1.54-2.09-2.88-4-2.88,4.64-6.34,9.44-8.34,12.2A182.24,182.24,0,0,0,61.25,84.14c2.2-3,7.53-10.56,10.89-16.41C69.51,64,66.19,59.18,63.71,55Z"/><path class="cls-1" d="M47.5,81.25a1.25,1.25,0,0,1-2.5,0V67.83a153.78,153.78,0,0,1-9.67,14.94C38.69,88.63,44,96.11,46.25,99.14c2.21-3,7.56-10.51,10.92-16.37A153.89,153.89,0,0,1,47.5,67.83Z"/><path class="cls-1" d="M75,37.83c-2,3.6-6,9.41-9.68,14.94,2.11,3.45,7.86,12.32,10.93,16.39C82,61.42,90,49.4,90,46.25c0-4-3.93-8.33-12.5-8.71V51.25a1.25,1.25,0,0,1-2.5,0Z"/><path class="cls-3" d="M16.25,72.5a1.25,1.25,0,0,0,1-.5s.57-.76,1.48-2c4.4,7.45,11.21,16.59,11.52,17a1.25,1.25,0,0,0,2,0s.57-.76,1.48-2c4.4,7.45,11.21,16.59,11.52,17a1.25,1.25,0,0,0,2,0c.31-.41,7.12-9.55,11.52-17,.91,1.25,1.48,2,1.48,2a1.25,1.25,0,0,0,2,0c.31-.41,7.12-9.55,11.52-17,.91,1.25,1.48,2,1.48,2a1.25,1.25,0,0,0,2,0C78.81,69.92,92.5,51.51,92.5,46.25S87.47,35.07,76.43,35a9.81,9.81,0,0,0,1.07-3.76C77.5,25.83,72.41,20,61.25,20,54.53,20,50,22.12,47.5,25V16.25A16.27,16.27,0,0,0,31.25,0a1.25,1.25,0,0,0,0,2.5A13.76,13.76,0,0,1,45,16.25V25c-2.53-2.86-7-5-13.75-5C20.09,20,15,25.83,15,31.25A9.81,9.81,0,0,0,16.07,35C5,35.07,0,40.86,0,46.25S13.69,69.92,15.25,72A1.25,1.25,0,0,0,16.25,72.5Zm15,11.65c-2.19-3-7.56-10.51-10.93-16.36,2.63-3.71,6-8.57,8.46-12.8L30,56.66v9.59a1.25,1.25,0,0,0,2.5,0V56.66C33,56,34,54.58,35.38,52.71c2.93,4.71,6.37,9.48,8.36,12.21A188.37,188.37,0,0,1,31.25,84.15Zm15,15c-2.21-3-7.56-10.51-10.92-16.37A153.78,153.78,0,0,0,45,67.83V81.25a1.25,1.25,0,0,0,2.5,0V67.83a153.89,153.89,0,0,0,9.67,14.94C53.81,88.63,48.46,96.11,46.25,99.14Zm15-15A182.24,182.24,0,0,1,48.78,64.9c2-2.76,5.46-7.55,8.34-12.2,1.34,1.86,2.42,3.33,2.88,4v9.59a1.25,1.25,0,0,0,2.5,0v-9.6L63.71,55c2.48,4.21,5.8,9.05,8.43,12.76C68.77,73.58,63.45,81.13,61.25,84.14Zm15-31.64a1.25,1.25,0,0,0,1.25-1.25V37.54c8.57.39,12.5,4.69,12.5,8.71,0,3.15-8,15.17-13.75,22.9-3.07-4.07-8.82-12.93-10.93-16.39C69,47.24,73,41.43,75,37.83V51.25A1.25,1.25,0,0,0,76.25,52.5ZM60,22.54V36.25a1.25,1.25,0,0,0,2.5,0V22.54c8.57.39,12.5,4.69,12.5,8.71S62.61,52.13,61.25,54.15c-1.5-2.07-13.75-19.41-13.75-22.9C47.5,27.23,51.43,22.92,60,22.54Zm-13.75,30a1.25,1.25,0,0,0,1.25-1.25V37.85a138.33,138.33,0,0,0,8.07,12.66c-.11.19-9.32,13.62-9.32,13.62S37,50.69,36.93,50.52A138.5,138.5,0,0,0,45,37.85v13.4A1.25,1.25,0,0,0,46.25,52.5ZM30,22.54V36.25a1.25,1.25,0,0,0,2.5,0V22.54c8.57.39,12.5,4.69,12.5,8.71C45,35,32.3,52.82,31.25,54.15,30.08,52.71,17.5,34.67,17.5,31.25,17.5,27.23,21.43,22.92,30,22.54Zm-15,15V51.25a1.25,1.25,0,0,0,2.5,0V37.83c2,3.61,9.55,14.76,9.68,14.94C25,56.24,19.32,65.08,16.25,69.15,10.55,61.42,2.5,49.4,2.5,46.25,2.5,42.23,6.43,37.92,15,37.54Z"/></g></g></svg>