<svg xmlns="http://www.w3.org/2000/svg" xmlns:xlink="http://www.w3.org/1999/xlink" viewBox="0 0 632 446.89"><defs><style>.cls-1{fill:none;}.cls-2{clip-path:url(#clip-path);}.cls-3,.cls-6{fill:#3a4149;}.cls-3,.cls-4{fill-rule:evenodd;}.cls-4{fill:#d7cfc2;}.cls-5{clip-path:url(#clip-path-3);}.cls-7{isolation:isolate;}.cls-8{clip-path:url(#clip-path-5);}.cls-9{font-size:24px;}.cls-10,.cls-9{font-family:Copperplate-Light, Copperplate;}.cls-10{font-size:36px;}</style><clipPath id="clip-path"><rect class="cls-1" x="250.5" y="144.33" width="130.33" height="174.72"/></clipPath><clipPath id="clip-path-3"><polygon class="cls-1" points="77.21 356.33 200.94 400.09 191.23 436 67.5 392.24 77.21 356.33"/></clipPath><clipPath id="clip-path-5"><polygon class="cls-1" points="556.23 356.33 432.5 400.09 442.21 436 565.94 392.24 556.23 356.33"/></clipPath></defs><title>Asset 1</title><g id="Layer_2" data-name="Layer 2"><g id="Layer_2-2" data-name="Layer 2"><g class="cls-2"><g class="cls-2"><path class="cls-3" d="M331.35,309c-22.95-28.24-8.27-44.54,4.7-43.44s23.88,19.59-4.7,43.44"/><path class="cls-3" d="M300,309c22.95-28.24,8.27-44.54-4.7-43.44S271.39,285.16,300,309"/><path class="cls-3" d="M315.66,319c27.46-27.75,13.82-46.29,0-46.29s-27.46,18.53,0,46.29"/><path class="cls-3" d="M334.52,292.5c-21.62-21.21-11.3-35.7-.6-35.84s21.5,14.07.6,35.84"/><path class="cls-3" d="M353,284.63c-48.18-35.39-34.49-66.61-14.66-69.89s45.26,21.47,14.66,69.89"/><path class="cls-3" d="M296.81,292.5c21.62-21.21,11.3-35.7.6-35.84s-21.5,14.07-.6,35.84"/><path class="cls-3" d="M278.3,284.63C326.48,249.25,312.79,218,293,214.74s-45.27,21.47-14.66,69.89"/><path class="cls-3" d="M315.66,291c40.09-37,20.18-61.66,0-61.66s-40.1,24.69,0,61.66"/><path class="cls-3" d="M289,260.29c29-22.16,19.22-40.58,6.64-42.15s-27.66,13.77-6.64,42.15"/><path class="cls-3" d="M259.76,251.35c56-24.64,50.76-57.82,32.3-65.05s-49.6,11.68-32.3,65.05"/><path class="cls-3" d="M342.36,260.29c-29-22.16-19.22-40.58-6.64-42.15s27.66,13.77,6.64,42.15"/><path class="cls-3" d="M371.56,251.35c-56-24.64-50.76-57.82-32.3-65.05s49.6,11.68,32.3,65.05"/><path class="cls-3" d="M315.66,254.49c46.23-42.63,23.27-71.1,0-71.1s-46.23,28.47,0,71.1"/><path class="cls-3" d="M284.57,224.46c32.33-18.14,25.73-37.63,13.54-40.82s-29.64,10-13.54,40.82"/><path class="cls-3" d="M346.76,224.46c-32.33-18.14-25.73-37.63-13.54-40.82s29.63,10,13.54,40.82"/><path class="cls-3" d="M250.71,211.69c60.85-12.76,64.15-46.14,48-56.89s-51.29,1.43-48,56.89"/><path class="cls-3" d="M380.61,211.69c-60.85-12.76-64.15-46.14-48-56.89s51.29,1.43,48,56.89"/><path class="cls-3" d="M315.66,217.85c49.92-44.08,25.13-73.52,0-73.52s-49.92,29.44,0,73.52"/><path class="cls-4" d="M315.66,213.87c8.59-7.86,16.9-17.16,21.73-27.23A41.16,41.16,0,0,0,341,175.5a45.54,45.54,0,0,1-2.11,4.71c-5.18,10.06-14.07,19.37-23.26,27.23-9.2-7.86-18.09-17.16-23.26-27.23a46,46,0,0,1-2.11-4.71,41.29,41.29,0,0,0,3.64,11.14c4.84,10.06,13.14,19.37,21.73,27.23"/><path class="cls-4" d="M315.66,210.44c-.75-.35-1.94-.69-2.69-1a43,43,0,0,1,2.69-13.59,43,43,0,0,1,2.69,13.59c-.75.35-1.94.69-2.69,1"/><path class="cls-4" d="M315.66,250.34c7.88-7.55,15.48-16.47,19.91-26.11a46.17,46.17,0,0,0,2.13-5.51c-5.05,9.34-13.4,18-22,25.33-8.65-7.34-17-16-22-25.33a45.87,45.87,0,0,0,2.13,5.52c4.44,9.64,12,18.56,19.91,26.11"/><path class="cls-4" d="M315.66,246.24c-.7-.32-1.81-.65-2.51-1a40.16,40.16,0,0,1,2.51-12.7,40.11,40.11,0,0,1,2.51,12.7c-.7.32-1.81.65-2.51,1"/><path class="cls-4" d="M315.66,286.84c6.69-6.45,13.12-14,16.89-22.24a36.16,36.16,0,0,0,2.66-8q-.46,1.06-1,2.1c-4.14,8.19-11.21,15.79-18.57,22.24-7.35-6.45-14.42-14-18.56-22.24-.35-.69-.68-1.39-1-2.1a36.27,36.27,0,0,0,2.66,8c3.77,8.2,10.2,15.79,16.89,22.24"/><path class="cls-4" d="M315.72,282.2c-.6-.28-1.56-.56-2.16-.84a34.55,34.55,0,0,1,2.16-10.92,34.55,34.55,0,0,1,2.16,10.92c-.6.28-1.56.56-2.16.84"/><path class="cls-4" d="M315.66,314.65c4.29-4.66,8.25-10,10.62-15.63a23.48,23.48,0,0,0,2-11.41,26.81,26.81,0,0,1-2,7.63c-2.37,5.66-6.33,11-10.62,15.63-4.29-4.66-8.25-10-10.62-15.63a26.8,26.8,0,0,1-2-7.63A23.5,23.5,0,0,0,305,299c2.37,5.65,6.33,11,10.62,15.63"/><path class="cls-4" d="M315.72,312.43c-.5-.23-1.31-.47-1.82-.7a29,29,0,0,1,1.82-9.19,29,29,0,0,1,1.82,9.19c-.51.23-1.31.47-1.82.7"/><path class="cls-4" d="M253.68,208c12.24-2.86,26.57-7.73,36.91-15.63-10.23,5.56-22.9,8.72-33.45,11.19-.3-10.43.19-22.71,4.18-33.12-6.42,11.08-8,25.38-7.63,37.56"/><path class="cls-4" d="M255.92,204.65c-.22-.59-.7-1.42-.92-2a26.66,26.66,0,0,1,9.22-6.22,57.76,57.76,0,0,0-6.2,9.09c-.62-.2-1.48-.64-2.1-.85"/><path class="cls-4" d="M261.73,247.2c9.42-4.41,20.17-10.63,28.15-18.46-8.1,5.91-17.85,10.32-26.07,14.16-2.73-9.36-5.5-20.41-5-30.87-2.36,11.47-.25,24.45,2.89,35.17"/><path class="cls-4" d="M263.33,244.21c-.33-.41-.93-.94-1.26-1.35a19.92,19.92,0,0,1,5.56-7.2c-.79,2.71-1.74,5.59-2.42,8.68-.54,0-1.33-.13-1.87-.13"/><path class="cls-4" d="M279.18,280.2a114.08,114.08,0,0,0,15.89-14.7A62,62,0,0,1,280.16,276c-4.91-7-10.06-15.91-12.35-24.59,1.61,10.08,6.09,20,11.37,28.8"/><path class="cls-4" d="M279.84,278c-.37-.26-1-.57-1.35-.84a15.47,15.47,0,0,1,2.9-7.12c0,2.42-.22,5,0,7.66-.44.12-1.13.18-1.57.3"/><path class="cls-4" d="M299.35,302.06a18.24,18.24,0,0,0,2.77-1.16,37.34,37.34,0,0,1-2.6,3.72c-6.76-6.11-14.31-15-14.44-23.83,1.46,7.86,8.25,15.83,14.27,21.27"/><path class="cls-4" d="M299.6,303.24c-.25-.09-.64-.16-.89-.25a8.87,8.87,0,0,1,.4-4.42c.41,1.34.73,2.79,1.31,4.25-.22.13-.59.28-.82.42"/><path class="cls-4" d="M296.88,288.07a46.65,46.65,0,0,0,6.93-9.49,27.66,27.66,0,0,1-6.88,6.72,33.3,33.3,0,0,1-7.63-9.12,42.12,42.12,0,0,0,7.58,11.9"/><path class="cls-4" d="M296.9,285.88c-.23-.1-.61-.2-.84-.3a8.63,8.63,0,0,1,.73-4.25c.29,1.33.48,2.76.94,4.21-.23.11-.6.23-.83.34"/><path class="cls-4" d="M289.62,255.92c4.54-3.77,9.48-8.72,12.45-14.13a42.85,42.85,0,0,1-11.86,10.6,36.9,36.9,0,0,1-8.12-12.89c1.19,5.82,4.34,11.69,7.53,16.42"/><path class="cls-4" d="M290.1,253.23c-.3-.24-.8-.52-1.09-.76a13.09,13.09,0,0,1,2.77-5.85c-.13,2-.42,4.16-.35,6.43-.38.08-1,.11-1.33.18"/><path class="cls-4" d="M285.91,220.21c6.12-3.75,13.33-9.35,16.94-15.54a94.08,94.08,0,0,1-15.66,11.51c-2.46-3.7-4.59-9.23-6-13.72.08,6,2.27,12.47,4.72,17.75"/><path class="cls-4" d="M287,216.76c-.29-.28-.78-.62-1.07-.9a13.83,13.83,0,0,1,3.49-5.86c-.33,2.11-.85,4.32-1,6.69-.4,0-1,0-1.41.06"/><path class="cls-4" d="M377.65,208c-12.24-2.86-26.57-7.73-36.9-15.63,10.23,5.56,22.89,8.72,33.45,11.19.3-10.43-.19-22.71-4.18-33.12,6.42,11.08,8,25.38,7.63,37.56"/><path class="cls-4" d="M375.41,204.65c.22-.59.7-1.42.92-2a26.66,26.66,0,0,0-9.22-6.22,57.76,57.76,0,0,1,6.2,9.09c.62-.2,1.48-.64,2.1-.85"/><path class="cls-4" d="M369.59,247.2c-9.42-4.41-20.17-10.63-28.15-18.46,8.1,5.91,17.85,10.32,26.07,14.16,2.73-9.36,5.5-20.41,5-30.87,2.36,11.47.25,24.45-2.89,35.17"/><path class="cls-4" d="M368,244.21c.33-.41.93-.94,1.26-1.35a19.92,19.92,0,0,0-5.56-7.2c.79,2.71,1.74,5.59,2.42,8.68.54,0,1.33-.13,1.87-.13"/><path class="cls-4" d="M352.15,280.2a114.08,114.08,0,0,1-15.89-14.7A62,62,0,0,0,351.16,276c4.91-7,10.06-15.91,12.35-24.59-1.6,10.08-6.09,20-11.37,28.8"/><path class="cls-4" d="M351.49,278c.37-.26,1-.57,1.35-.84a15.47,15.47,0,0,0-2.9-7.12c0,2.42.22,5,0,7.66.44.12,1.13.18,1.57.3"/><path class="cls-4" d="M332,302.06a18.24,18.24,0,0,1-2.77-1.16,37.34,37.34,0,0,0,2.6,3.72c6.76-6.11,14.31-15,14.44-23.83-1.46,7.86-8.25,15.83-14.27,21.27"/><path class="cls-4" d="M331.73,303.24c.25-.09.64-.16.89-.25a8.84,8.84,0,0,0-.4-4.42c-.4,1.34-.73,2.79-1.31,4.25.23.13.6.28.82.42"/><path class="cls-4" d="M334.45,288.07a46.65,46.65,0,0,1-6.93-9.49,27.66,27.66,0,0,0,6.88,6.72,33.3,33.3,0,0,0,7.63-9.12,42.12,42.12,0,0,1-7.58,11.9"/><path class="cls-4" d="M334.42,285.88c.23-.1.61-.2.84-.3a8.63,8.63,0,0,0-.73-4.25c-.29,1.33-.48,2.76-.94,4.21.23.11.6.23.83.34"/><path class="cls-4" d="M341.7,255.92c-4.54-3.77-9.48-8.72-12.45-14.13a42.85,42.85,0,0,0,11.86,10.6,36.9,36.9,0,0,0,8.12-12.89c-1.19,5.82-4.34,11.69-7.53,16.42"/><path class="cls-4" d="M341.23,253.23c.3-.24.8-.52,1.09-.76a13.09,13.09,0,0,0-2.77-5.85c.13,2,.42,4.16.35,6.43.38.08,1,.11,1.33.18"/><path class="cls-4" d="M345.41,220.21c-6.12-3.75-13.33-9.35-16.94-15.54a94.08,94.08,0,0,0,15.66,11.51c2.46-3.7,4.59-9.23,6-13.72-.08,6-2.27,12.47-4.72,17.75"/><path class="cls-4" d="M344.36,216.76c.29-.28.78-.62,1.07-.9a13.83,13.83,0,0,0-3.49-5.86c.33,2.11.85,4.32,1,6.69.4,0,1,0,1.41.06"/></g></g></g><g id="Layer_4" data-name="Layer 4"><g id="Layer_2-3" data-name="Layer 2"><g class="cls-5"><g class="cls-5"><path class="cls-6" d="M194.48,419.47h0l-107-40a1.36,1.36,0,0,1-.73-1.66h0a1.1,1.1,0,0,1,1.41-.83h0l107,40a1.36,1.36,0,0,1,.76,1.65,1.13,1.13,0,0,1-1.44.87Z"/><path class="cls-6" d="M102.17,384c-.87,2.09-2.69,2.74-4.84,2.83a13.79,13.79,0,0,1-11-5.81c-1.85-2.44-11.07-7.28-13.46-8.71,2.59.62,12.28,2.83,15.2,2.19,4.17-.92,9.51.41,12.45,3.89,1.41,1.65,2.32,3.36,1.63,5.62"/><path class="cls-6" d="M175.39,408a12.08,12.08,0,0,0,6,5.18c3.86,1.22,6.86-1.37,6.43-5.69-.69-6.83-6.87-11-12.36-13.09a6.23,6.23,0,0,1-4.23-4.84c-.51,6.09.5,13.21,4.15,18.43"/><path class="cls-6" d="M173.88,413.26a10.43,10.43,0,0,1,7.54-.11,5.54,5.54,0,0,1,2.21,8.91c-4.1,5-11.25,4.18-16.76,2.19a5.23,5.23,0,0,0-5.92,1c2.76-5.2,7.27-10.25,12.94-12"/><path class="cls-6" d="M163.07,403.45a11.71,11.71,0,0,0,5.81,5c3.69,1.17,6.64-1.33,6.22-5.51-.66-6.6-6.65-10.61-12-12.61a6,6,0,0,1-4.09-4.69c-.5,5.89.49,12.79,4,17.8"/><path class="cls-6" d="M161.58,408.61a10.1,10.1,0,0,1,7.29-.1,5.37,5.37,0,0,1,2.14,8.63c-4,4.88-10.89,4-16.27,2.1a5.06,5.06,0,0,0-5.74,1c2.72-5.07,7.1-10,12.58-11.64"/><path class="cls-6" d="M150.71,398.9a11.61,11.61,0,0,0,5.76,5c3.66,1.16,6.62-1.25,6.17-5.47-.66-6.55-6.57-10.52-11.87-12.58a6,6,0,0,1-4-4.63c-.5,5.86.48,12.69,4,17.71"/><path class="cls-6" d="M149.25,404a10,10,0,0,1,7.22-.11,5.34,5.34,0,0,1,2.12,8.57c-3.93,4.81-10.76,4-16.09,2.1a5,5,0,0,0-5.69,1c2.66-5,7-9.89,12.44-11.56"/><path class="cls-6" d="M138.38,394.37a11.23,11.23,0,0,0,5.58,4.81c3.54,1.12,6.36-1.27,6-5.28-.64-6.34-6.38-10.18-11.47-12.15a5.78,5.78,0,0,1-3.92-4.49c-.47,5.65.46,12.26,3.86,17.11"/><path class="cls-6" d="M137,399.28a9.69,9.69,0,0,1,7-.1,5.16,5.16,0,0,1,2.05,8.28c-3.81,4.64-10.47,3.87-15.57,2a4.86,4.86,0,0,0-5.5,1c2.57-4.87,6.77-9.56,12-11.18"/><path class="cls-6" d="M126,389.85a10.84,10.84,0,0,0,5.38,4.63c3.41,1.09,6.14-1.23,5.77-5.14-.63-6-6.18-9.77-11.09-11.67a5.59,5.59,0,0,1-3.79-4.34c-.46,5.46.47,11.85,3.73,16.52"/><path class="cls-6" d="M124.68,394.59a9.36,9.36,0,0,1,6.75-.1,5,5,0,0,1,2,8c-3.72,4.5-10.07,3.76-15.06,1.92a4.69,4.69,0,0,0-5.31.93c2.48-4.67,6.53-9.19,11.6-10.75"/><path class="cls-6" d="M113.72,385.34a10.45,10.45,0,0,0,5.2,4.47c3.3,1,5.92-1.19,5.52-4.92-.59-5.9-5.95-9.48-10.69-11.31a5.42,5.42,0,0,1-3.62-4.18c-.44,5.28.43,11.43,3.59,15.93"/><path class="cls-6" d="M112.4,389.91a9,9,0,0,1,6.5-.09,4.8,4.8,0,0,1,1.91,7.7c-3.55,4.35-9.72,3.61-14.49,1.89a4.52,4.52,0,0,0-5.12.91c2.4-4.55,6.31-8.91,11.2-10.4"/><path class="cls-6" d="M101.38,380.82a10,10,0,0,0,5,4.31c3.17,1,5.71-1.14,5.34-4.73-.56-5.68-5.73-9.12-10.29-10.88a5.18,5.18,0,0,1-3.52-4c-.42,5.07.42,11,3.46,15.34"/><path class="cls-6" d="M100.11,385.22a8.69,8.69,0,0,1,6.3-.08,4.61,4.61,0,0,1,1.84,7.41c-3.42,4.19-9.32,3.49-14,1.82a4.35,4.35,0,0,0-4.92.87c2.26-4.37,6-8.54,10.74-10"/><polygon class="cls-6" points="97.43 389.49 101.44 375.56 183.88 406.39 179.86 420.33 97.43 389.49"/><path class="cls-6" d="M93.21,369.83c-3.38-1.87-11.51-4.21-15.49-4.34,5.56,1,12,4.91,15.16,5.88,2.19.65,2.67-.3.33-1.53"/><path class="cls-6" d="M87.79,388.6c-3.68-.83-11.46-4.38-14.74-7,5,3,12.2,4.12,15.26,5.5,2.11.95,2,2-.52,1.47"/></g></g></g><g id="Layer_2-4" data-name="Layer 2" class="cls-7"><g class="cls-8"><g class="cls-8"><path class="cls-6" d="M439,419.47h0l107-40a1.36,1.36,0,0,0,.73-1.66h0a1.1,1.1,0,0,0-1.41-.83h0l-107,40a1.36,1.36,0,0,0-.76,1.65,1.13,1.13,0,0,0,1.44.87Z"/><path class="cls-6" d="M531.27,384c.87,2.09,2.69,2.74,4.84,2.83a13.79,13.79,0,0,0,11-5.81c1.85-2.44,11.07-7.28,13.46-8.71-2.59.62-12.28,2.83-15.2,2.19-4.17-.92-9.51.41-12.45,3.89-1.41,1.65-2.32,3.36-1.63,5.62"/><path class="cls-6" d="M458,408a12.08,12.08,0,0,1-6,5.18c-3.86,1.22-6.86-1.37-6.43-5.69.69-6.83,6.87-11,12.36-13.09a6.23,6.23,0,0,0,4.23-4.84c.51,6.09-.5,13.21-4.15,18.43"/><path class="cls-6" d="M459.56,413.26a10.43,10.43,0,0,0-7.54-.11,5.54,5.54,0,0,0-2.21,8.91c4.1,5,11.25,4.18,16.76,2.19a5.23,5.23,0,0,1,5.92,1c-2.76-5.2-7.27-10.25-12.94-12"/><path class="cls-6" d="M470.37,403.45a11.71,11.71,0,0,1-5.81,5c-3.69,1.17-6.64-1.33-6.22-5.51.66-6.6,6.65-10.61,12-12.61a6,6,0,0,0,4.09-4.69c.5,5.89-.49,12.79-4,17.8"/><path class="cls-6" d="M471.86,408.61a10.1,10.1,0,0,0-7.29-.1,5.37,5.37,0,0,0-2.14,8.63c4,4.88,10.89,4,16.27,2.1a5.06,5.06,0,0,1,5.74,1c-2.72-5.07-7.1-10-12.58-11.64"/><path class="cls-6" d="M482.73,398.9a11.61,11.61,0,0,1-5.76,5c-3.66,1.16-6.62-1.25-6.17-5.47.66-6.55,6.57-10.52,11.87-12.58a6,6,0,0,0,4-4.63c.5,5.86-.48,12.69-4,17.71"/><path class="cls-6" d="M484.19,404a10,10,0,0,0-7.22-.11,5.34,5.34,0,0,0-2.12,8.57c3.93,4.81,10.76,4,16.09,2.1a5,5,0,0,1,5.69,1c-2.66-5-7-9.89-12.44-11.56"/><path class="cls-6" d="M495.06,394.37a11.23,11.23,0,0,1-5.58,4.81c-3.54,1.12-6.36-1.27-6-5.28.64-6.34,6.38-10.18,11.47-12.15a5.78,5.78,0,0,0,3.92-4.49c.47,5.65-.46,12.26-3.86,17.11"/><path class="cls-6" d="M496.48,399.28a9.69,9.69,0,0,0-7-.1,5.16,5.16,0,0,0-2.05,8.28c3.81,4.64,10.47,3.87,15.57,2a4.86,4.86,0,0,1,5.5,1c-2.57-4.87-6.77-9.56-12-11.18"/><path class="cls-6" d="M507.39,389.85a10.84,10.84,0,0,1-5.38,4.63c-3.41,1.09-6.14-1.23-5.77-5.14.63-6,6.18-9.77,11.09-11.67a5.59,5.59,0,0,0,3.79-4.34c.46,5.46-.47,11.85-3.73,16.52"/><path class="cls-6" d="M508.76,394.59a9.36,9.36,0,0,0-6.75-.1,5,5,0,0,0-2,8c3.72,4.5,10.07,3.76,15.06,1.92a4.69,4.69,0,0,1,5.31.93c-2.48-4.67-6.53-9.19-11.6-10.75"/><path class="cls-6" d="M519.72,385.34a10.45,10.45,0,0,1-5.2,4.47c-3.3,1-5.92-1.19-5.52-4.92.59-5.9,5.95-9.48,10.69-11.31a5.42,5.42,0,0,0,3.62-4.18c.44,5.28-.43,11.43-3.59,15.93"/><path class="cls-6" d="M521,389.91a9,9,0,0,0-6.5-.09,4.8,4.8,0,0,0-1.91,7.7c3.55,4.35,9.72,3.61,14.49,1.89a4.52,4.52,0,0,1,5.12.91c-2.4-4.55-6.31-8.91-11.2-10.4"/><path class="cls-6" d="M532.06,380.82a10,10,0,0,1-5,4.31c-3.17,1-5.71-1.14-5.34-4.73.56-5.68,5.73-9.12,10.29-10.88a5.18,5.18,0,0,0,3.52-4c.42,5.07-.42,11-3.46,15.34"/><path class="cls-6" d="M533.33,385.22a8.69,8.69,0,0,0-6.3-.08,4.61,4.61,0,0,0-1.84,7.41c3.42,4.19,9.32,3.49,14,1.82a4.35,4.35,0,0,1,4.92.87c-2.26-4.37-6-8.54-10.74-10"/><polygon class="cls-6" points="536.01 389.49 532 375.56 449.56 406.39 453.58 420.33 536.01 389.49"/><path class="cls-6" d="M540.23,369.83c3.38-1.87,11.51-4.21,15.49-4.34-5.56,1-12,4.91-15.16,5.88-2.19.65-2.67-.3-.33-1.53"/><path class="cls-6" d="M545.64,388.6c3.68-.83,11.46-4.38,14.74-7-5,3-12.2,4.12-15.26,5.5-2.11.95-2,2,.52,1.47"/></g></g></g><g id="Layer_3" data-name="Layer 3"><text class="cls-9" transform="translate(208.16 430.16) rotate(10.13)">E</text><text class="cls-9" transform="translate(223.83 432.94) rotate(8.65)">s</text><text class="cls-9" transform="matrix(0.99, 0.13, -0.13, 0.99, 236.94, 434.93)">t</text><text class="cls-9" transform="translate(248.75 436.47) rotate(6.08)">a</text><text class="cls-9" transform="translate(261.94 437.88) rotate(4.66)">b</text><text class="cls-9" transform="matrix(1, 0.06, -0.06, 1, 276.44, 439.06)">l</text><text class="cls-9" transform="translate(289.71 439.78) rotate(2.16)">i</text><text class="cls-9" transform="translate(297.62 440.11) rotate(1.09)">s</text><text class="cls-9" transform="translate(311.05 440.44) rotate(-0.81)">h</text><text class="cls-9" transform="translate(326.99 440.26) rotate(-1.96)">e</text><text class="cls-9" transform="translate(341.57 439.76) rotate(-3.44)">d</text><text class="cls-9" transform="matrix(1, -0.08, 0.08, 1, 356.11, 438.85)"> </text><text class="cls-9" transform="translate(363.38 438.31) rotate(-5.67)">2</text><text class="cls-9" transform="matrix(0.99, -0.12, 0.12, 0.99, 377.87, 436.87)">0</text><text class="cls-9" transform="translate(392.33 435.06) rotate(-8.64)">1</text><text class="cls-9" transform="translate(406.72 432.87) rotate(-10.12)">2</text></g></g><g id="Layer_5" data-name="Layer 5"><text class="cls-10" transform="matrix(0.84, -0.55, 0.55, 0.84, 16.46, 120.87)">S</text><text class="cls-10" transform="matrix(0.86, -0.51, 0.51, 0.86, 36.41, 107.93)">a</text><text class="cls-10" transform="matrix(0.88, -0.48, 0.48, 0.88, 53.42, 97.78)">n</text><text class="cls-10" transform="translate(74.44 86.55) rotate(-26.53)"> </text><text class="cls-10" transform="translate(84.11 81.63) rotate(-24.81)">F</text><text class="cls-10" transform="matrix(0.92, -0.38, 0.38, 0.92, 103.87, 72.48)">r</text><text class="cls-10" transform="translate(124 64.16) rotate(-20.31)">a</text><text class="cls-10" transform="translate(142.54 57.24) rotate(-17.99)">n</text><text class="cls-10" transform="matrix(0.96, -0.27, 0.27, 0.96, 165.17, 49.93)">c</text><text class="cls-10" transform="translate(184.3 44.64) rotate(-13.92)">i</text><text class="cls-10" transform="matrix(0.98, -0.21, 0.21, 0.98, 195.76, 41.73)">s</text><text class="cls-10" transform="translate(215.11 37.54) rotate(-10.03)">c</text><text class="cls-10" transform="translate(234.6 34.07) rotate(-7.75)">o</text><text class="cls-10" transform="matrix(0.99, -0.1, 0.1, 0.99, 256.24, 31.21)"> </text><text class="cls-10" transform="matrix(1, -0.07, 0.07, 1, 266.97, 29.93)">H</text><text class="cls-10" transform="translate(294.68 28.14) rotate(-1.12)">o</text><text class="cls-10" transform="translate(316.41 27.66) rotate(1.46)">m</text><text class="cls-10" transform="matrix(1, 0.07, -0.07, 1, 342.14, 28.36)">e</text><text class="cls-10" transform="translate(363.85 29.89) rotate(6.45)">b</text><text class="cls-10" transform="translate(385.49 32.33) rotate(8.84)">r</text><text class="cls-10" transform="translate(407 35.67) rotate(11.23)">e</text><text class="cls-10" transform="translate(428.32 39.83) rotate(13.92)">w</text><text class="cls-10" transform="translate(455.24 46.57) rotate(16.6)">e</text><text class="cls-10" transform="translate(476.1 52.78) rotate(18.94)">r</text><text class="cls-10" transform="translate(496.7 59.87) rotate(21.16)">s</text><text class="cls-10" transform="translate(515.21 67.1) rotate(22.78)"> </text><text class="cls-10" transform="translate(525.23 71.17) rotate(24.72)">G</text><text class="cls-10" transform="matrix(0.89, 0.46, -0.46, 0.89, 548.6, 81.94)">u</text><text class="cls-10" transform="matrix(0.87, 0.49, -0.49, 0.87, 569.73, 92.97)">i</text><text class="cls-10" transform="matrix(0.86, 0.51, -0.51, 0.86, 580.1, 98.69)">l</text><text class="cls-10" transform="matrix(0.84, 0.55, -0.55, 0.84, 597.08, 108.83)">d</text></g></g></svg>